<mxfile host="app.diagrams.net" modified="2022-08-24T10:03:03.027Z" agent="5.0 (Macintosh; Intel Mac OS X 10_15_7) AppleWebKit/537.36 (KHTML, like Gecko) Chrome/104.0.0.0 Safari/537.36" etag="YT8oReUuneHlbsDAxxEu" version="20.2.6" type="github">
  <diagram id="3H_DjvK5aCsimAfkBGPP" name="第 1 页">
    <mxGraphModel dx="1426" dy="623" grid="1" gridSize="10" guides="1" tooltips="1" connect="1" arrows="1" fold="1" page="1" pageScale="1" pageWidth="827" pageHeight="1169" math="0" shadow="0">
      <root>
        <mxCell id="0" />
        <mxCell id="1" parent="0" />
        <mxCell id="W_6H-0lPCFEBzDVElXbA-1" value="&lt;span style=&quot;font-size: 24px;&quot;&gt;产品分类&lt;/span&gt;" style="rounded=0;whiteSpace=wrap;html=1;strokeColor=#97D077;" vertex="1" parent="1">
          <mxGeometry x="414" y="255" width="120" height="50" as="geometry" />
        </mxCell>
        <mxCell id="W_6H-0lPCFEBzDVElXbA-2" value="&lt;font style=&quot;font-size: 24px;&quot;&gt;名称&lt;/font&gt;" style="ellipse;whiteSpace=wrap;html=1;strokeColor=#97D077;" vertex="1" parent="1">
          <mxGeometry x="190" y="255" width="130" height="50" as="geometry" />
        </mxCell>
        <mxCell id="W_6H-0lPCFEBzDVElXbA-3" value="" style="endArrow=classic;html=1;rounded=0;fontSize=24;strokeColor=#3399FF;" edge="1" parent="1" target="W_6H-0lPCFEBzDVElXbA-2">
          <mxGeometry width="50" height="50" relative="1" as="geometry">
            <mxPoint x="410" y="280" as="sourcePoint" />
            <mxPoint x="440" y="290" as="targetPoint" />
          </mxGeometry>
        </mxCell>
      </root>
    </mxGraphModel>
  </diagram>
</mxfile>
